<mxfile host="app.diagrams.net" modified="2020-07-21T02:00:06.165Z" agent="5.0 (X11; Linux x86_64) AppleWebKit/537.36 (KHTML, like Gecko) Chrome/84.0.4147.89 Safari/537.36" etag="3KBieOaDu1Q_KwZvlk9e" version="13.4.8" type="github">
  <diagram id="cXSmEnkO7xllJLYyho7A" name="第 1 页">
    <mxGraphModel dx="796" dy="425" grid="1" gridSize="10" guides="1" tooltips="1" connect="1" arrows="1" fold="1" page="1" pageScale="1" pageWidth="827" pageHeight="1169" math="0" shadow="0">
      <root>
        <mxCell id="0" />
        <mxCell id="1" parent="0" />
        <mxCell id="23nW0zLonvN0042iozTC-11" value="" style="edgeStyle=orthogonalEdgeStyle;rounded=0;orthogonalLoop=1;jettySize=auto;html=1;" edge="1" parent="1" source="23nW0zLonvN0042iozTC-1" target="23nW0zLonvN0042iozTC-2">
          <mxGeometry relative="1" as="geometry" />
        </mxCell>
        <mxCell id="23nW0zLonvN0042iozTC-1" value="" style="rounded=0;whiteSpace=wrap;html=1;" vertex="1" parent="1">
          <mxGeometry x="150" y="260" width="120" height="60" as="geometry" />
        </mxCell>
        <mxCell id="23nW0zLonvN0042iozTC-6" value="" style="edgeStyle=orthogonalEdgeStyle;rounded=0;orthogonalLoop=1;jettySize=auto;html=1;" edge="1" parent="1" source="23nW0zLonvN0042iozTC-2" target="23nW0zLonvN0042iozTC-3">
          <mxGeometry relative="1" as="geometry" />
        </mxCell>
        <mxCell id="23nW0zLonvN0042iozTC-13" value="" style="edgeStyle=orthogonalEdgeStyle;rounded=0;orthogonalLoop=1;jettySize=auto;html=1;" edge="1" parent="1" source="23nW0zLonvN0042iozTC-2" target="23nW0zLonvN0042iozTC-12">
          <mxGeometry relative="1" as="geometry" />
        </mxCell>
        <mxCell id="23nW0zLonvN0042iozTC-2" value="" style="shape=parallelogram;perimeter=parallelogramPerimeter;whiteSpace=wrap;html=1;" vertex="1" parent="1">
          <mxGeometry x="150" y="420" width="120" height="60" as="geometry" />
        </mxCell>
        <mxCell id="23nW0zLonvN0042iozTC-9" value="" style="edgeStyle=orthogonalEdgeStyle;rounded=0;orthogonalLoop=1;jettySize=auto;html=1;" edge="1" parent="1" source="23nW0zLonvN0042iozTC-3" target="23nW0zLonvN0042iozTC-8">
          <mxGeometry relative="1" as="geometry" />
        </mxCell>
        <mxCell id="23nW0zLonvN0042iozTC-3" value="" style="rhombus;whiteSpace=wrap;html=1;" vertex="1" parent="1">
          <mxGeometry x="170" y="570" width="80" height="80" as="geometry" />
        </mxCell>
        <mxCell id="23nW0zLonvN0042iozTC-8" value="" style="ellipse;whiteSpace=wrap;html=1;" vertex="1" parent="1">
          <mxGeometry x="340" y="570" width="120" height="80" as="geometry" />
        </mxCell>
        <mxCell id="23nW0zLonvN0042iozTC-10" value="&lt;font color=&quot;#ff3333&quot;&gt;Text&lt;/font&gt;" style="text;html=1;strokeColor=none;fillColor=none;align=center;verticalAlign=middle;whiteSpace=wrap;rounded=0;" vertex="1" parent="1">
          <mxGeometry x="394" y="280" width="40" height="20" as="geometry" />
        </mxCell>
        <mxCell id="23nW0zLonvN0042iozTC-12" value="" style="rounded=1;whiteSpace=wrap;html=1;strokeWidth=2;fillWeight=4;hachureGap=8;hachureAngle=45;fillColor=#1ba1e2;sketch=1;" vertex="1" parent="1">
          <mxGeometry x="354" y="420" width="120" height="60" as="geometry" />
        </mxCell>
      </root>
    </mxGraphModel>
  </diagram>
</mxfile>
